HIERARCHY
ROOT joint_Root
{
	OFFSET 0.0 0.0 0.0
	CHANNELS 6 Xposition Yposition Zposition Zrotation Xrotation Yrotation 
	JOINT Hips
	{
		OFFSET -17.1583 93.1646 452.98
		CHANNELS 6 Xposition Yposition Zposition Zrotation Xrotation Yrotation 
		JOINT Spine
		{
			OFFSET 15.7357 0.0 0.0
			CHANNELS 6 Xposition Yposition Zposition Zrotation Xrotation Yrotation 
			JOINT Chest
			{
				OFFSET 8.98455 -0.406207 0.0
				CHANNELS 6 Xposition Yposition Zposition Zrotation Xrotation Yrotation 
				JOINT Neck
				{
					OFFSET 16.3773 0.0 0.0
					CHANNELS 6 Xposition Yposition Zposition Zrotation Xrotation Yrotation 
					JOINT Head
					{
						OFFSET 6.45672 0.0 0.0
						CHANNELS 6 Xposition Yposition Zposition Zrotation Xrotation Yrotation 
						End Site
						{
							OFFSET 0.0 0.0 0.0
						}
					}
				}
				JOINT Shoulder_L
				{
					OFFSET 12.9942 -0.242716 4.98039
					CHANNELS 6 Xposition Yposition Zposition Zrotation Xrotation Yrotation 
					JOINT UpperArm_L
					{
						OFFSET 5.34809 0.0 0.0
						CHANNELS 6 Xposition Yposition Zposition Zrotation Xrotation Yrotation 
						JOINT LowerArm_L
						{
							OFFSET 24.3286 1.87007e-05 0.0
							CHANNELS 6 Xposition Yposition Zposition Zrotation Xrotation Yrotation 
							JOINT Hand_L
							{
								OFFSET 22.2916 0.0 0.0
								CHANNELS 6 Xposition Yposition Zposition Zrotation Xrotation Yrotation 
								End Site
								{
									OFFSET 0.0 0.0 0.0
								}
							}
						}
					}
				}
				JOINT Shoulder_R
				{
					OFFSET 12.9945 -0.242716 -4.98039
					CHANNELS 6 Xposition Yposition Zposition Zrotation Xrotation Yrotation 
					JOINT UpperArm_R
					{
						OFFSET -5.34813 0.0 0.0
						CHANNELS 6 Xposition Yposition Zposition Zrotation Xrotation Yrotation 
						JOINT LowerArm_R
						{
							OFFSET -24.3289 0.000322201 0.0
							CHANNELS 6 Xposition Yposition Zposition Zrotation Xrotation Yrotation 
							JOINT Hand_R
							{
								OFFSET -22.2915 -0.000108084 0.0
								CHANNELS 6 Xposition Yposition Zposition Zrotation Xrotation Yrotation 
								End Site
								{
									OFFSET 0.0 0.0 0.0
								}
							}
						}
					}
				}
			}
		}
		JOINT UpperLeg_L
		{
			OFFSET -2.19248 -6.46944 0.0
			CHANNELS 6 Xposition Yposition Zposition Zrotation Xrotation Yrotation 
			JOINT LowerLeg_L
			{
				OFFSET 39.0811 0.0 -1.23785e-05
				CHANNELS 6 Xposition Yposition Zposition Zrotation Xrotation Yrotation 
				JOINT Foot_L
				{
					OFFSET 40.9854 0.0 -1.26872e-05
					CHANNELS 6 Xposition Yposition Zposition Zrotation Xrotation Yrotation 
					JOINT Toes_L
					{
						OFFSET 11.7543 0.0 0.0
						CHANNELS 6 Xposition Yposition Zposition Zrotation Xrotation Yrotation 
						End Site
						{
							OFFSET 0.0 0.0 0.0
						}
					}
				}
			}
		}
		JOINT UpperLeg_R
		{
			OFFSET -2.19251 6.46944 0.0
			CHANNELS 6 Xposition Yposition Zposition Zrotation Xrotation Yrotation 
			JOINT LowerLeg_R
			{
				OFFSET -39.0811 -0.00228153 -0.0401928
				CHANNELS 6 Xposition Yposition Zposition Zrotation Xrotation Yrotation 
				JOINT Foot_R
				{
					OFFSET -40.9854 0.0 0.0
					CHANNELS 6 Xposition Yposition Zposition Zrotation Xrotation Yrotation 
					JOINT Toes_R
					{
						OFFSET -11.7543 0.0 0.0
						CHANNELS 6 Xposition Yposition Zposition Zrotation Xrotation Yrotation 
						End Site
						{
							OFFSET 0.0 0.0 0.0
						}
					}
				}
			}
		}
	}
}
MOTION
Frames:	8
Frame Time:	0.0333333
0.000000 0.000000 0.000000 0.000000 0.000000 -0.000000 159.130000 92.744600 221.678000 98.825700 -55.123600 7.565520 15.735700 0.000005 -0.000001 111.074000 87.136200 -110.925000 8.984550 -0.406207 -0.000000 -2.424740 2.045600 0.341849 16.377300 -0.000001 -0.000001 -1.638750 -8.236040 -0.493312 6.456720 -0.000001 -0.000000 3.859430 -13.245100 2.291840 12.994200 -0.242716 4.980390 -93.237800 8.442350 -68.927400 5.348090 -0.000007 -0.000001 -67.018500 -10.788500 15.153200 24.328600 0.000019 0.000005 3.057250 38.931100 -4.858370 22.291600 -0.000001 0.000005 -13.708700 5.026950 6.744110 12.994500 -0.242716 -4.980390 88.907300 3.647340 -73.309400 -5.348130 -0.000001 -0.000004 -66.672000 13.027500 -15.064000 -24.328900 0.000322 -0.000009 -0.428764 -0.459780 -42.922700 -22.291500 -0.000108 -0.000004 -0.498376 5.379860 -2.293720 -2.192480 -6.469440 -0.000000 -174.747000 -7.257360 -20.671200 39.081100 -0.000007 -0.000012 0.089590 -0.095801 43.080200 40.985400 -0.000006 -0.000013 -2.336790 -7.082360 -58.529600 11.754300 -0.000000 0.000003 0.001897 0.042967 -14.833800 -2.192510 6.469440 -0.000001 -175.196000 -13.889000 -173.758000 -39.081100 -0.002282 -0.040193 -0.000529 0.012316 17.379700 -40.985400 0.000008 0.000006 7.099260 3.789300 -67.881500 -11.754300 -0.000006 -0.000006 0.002158 0.114379 -11.934900
0.000000 0.000000 0.000000 0.000000 0.000000 -0.000000 157.508000 92.732800 224.764000 98.985000 -58.828300 7.438460 15.735700 0.000005 -0.000001 122.860000 86.724000 -122.474000 8.984550 -0.406207 -0.000000 -2.275740 3.520250 0.841969 16.377300 -0.000001 -0.000001 -2.273890 -7.763750 -0.659165 6.456720 -0.000001 -0.000000 2.925270 -13.161300 1.889870 12.994200 -0.242716 4.980390 -93.129100 7.843660 -68.169900 5.348090 -0.000007 -0.000001 -65.462700 -13.256600 19.308100 24.328600 0.000019 0.000005 2.366310 28.238100 -4.991620 22.291600 -0.000001 0.000005 -10.234000 5.068030 5.837220 12.994500 -0.242716 -4.980390 89.100200 3.073290 -73.672000 -5.348130 -0.000001 -0.000004 -64.381600 12.793200 -17.561800 -24.328900 0.000322 -0.000009 -0.951778 -0.837684 -48.611800 -22.291500 -0.000108 -0.000004 1.692340 5.403810 -3.060500 -2.192480 -6.469440 -0.000000 -173.887000 -6.270280 -19.376500 39.081100 -0.000007 -0.000012 0.043692 -0.072974 30.909700 40.985400 -0.000006 -0.000013 -2.856290 -6.457710 -62.110200 11.754300 -0.000000 0.000003 0.001967 0.045459 -14.732800 -2.192510 6.469440 -0.000001 -176.541000 -14.042200 -171.159000 -39.081100 -0.002282 -0.040193 -0.000653 0.014703 15.155900 -40.985400 0.000008 0.000006 7.382990 7.496490 -67.548100 -11.754300 -0.000006 -0.000006 0.002465 0.075660 -13.504700
0.000000 0.000000 0.000000 0.000000 0.000000 -0.000000 155.611000 92.359500 227.808000 98.621200 -61.228000 6.847440 15.735700 0.000005 -0.000001 128.938000 86.494900 -128.328000 8.984550 -0.406207 -0.000000 -2.338820 4.350620 1.308550 16.377300 -0.000001 -0.000001 -2.623930 -7.467690 -0.714732 6.456720 -0.000001 -0.000000 2.386610 -13.226800 1.617030 12.994200 -0.242716 4.980390 -92.966600 7.292070 -67.790400 5.348090 -0.000007 -0.000001 -63.032900 -16.414300 22.572900 24.328600 0.000019 0.000005 2.078880 23.085900 -5.288910 22.291600 -0.000001 0.000005 -7.664630 5.009310 7.118500 12.994500 -0.242716 -4.980390 89.204400 2.738390 -73.793000 -5.348130 -0.000001 -0.000004 -61.973100 12.082400 -19.477200 -24.328900 0.000322 -0.000009 -1.722430 -1.310440 -52.725300 -22.291500 -0.000108 -0.000004 3.608540 5.420660 -3.620210 -2.192480 -6.469440 -0.000000 -172.918000 -5.549440 -17.438800 39.081100 -0.000007 -0.000012 0.009835 -0.030079 18.106900 40.985400 -0.000006 -0.000013 -4.451210 0.686089 -63.896800 11.754300 -0.000000 0.000003 0.001781 0.039130 -14.989500 -2.192510 6.469440 -0.000001 -177.695000 -13.187300 -169.208000 -39.081100 -0.002282 -0.040193 0.000096 0.012626 14.370800 -40.985400 0.000008 0.000006 7.607470 10.449000 -67.841500 -11.754300 -0.000006 -0.000006 0.001934 0.044236 -14.778800
0.000000 0.000000 0.000000 0.000000 0.000000 -0.000000 153.394000 91.680900 230.908000 97.223400 -62.813200 5.214280 15.735700 0.000005 -0.000001 132.351000 86.523600 -131.459000 8.984550 -0.406207 -0.000000 -2.666590 4.601000 1.892510 16.377300 -0.000001 -0.000001 -2.892260 -7.377600 -0.613435 6.456720 -0.000001 -0.000000 2.375290 -13.151600 1.690820 12.994200 -0.242716 4.980390 -92.812500 6.881890 -67.706800 5.348090 -0.000007 -0.000001 -60.306800 -18.849900 24.474000 24.328600 0.000019 0.000005 1.878750 23.883000 -4.631890 22.291600 -0.000001 0.000005 -4.774710 4.905680 9.260500 12.994500 -0.242716 -4.980390 89.314400 2.382140 -73.939800 -5.348130 -0.000001 -0.000004 -60.417300 10.844000 -20.684000 -24.328900 0.000322 -0.000009 -2.474360 -1.731300 -55.026300 -22.291500 -0.000108 -0.000004 5.068340 5.428290 -3.879890 -2.192480 -6.469440 -0.000000 -171.186000 -3.798670 -14.829800 39.081100 -0.000007 -0.000012 0.002444 -0.024446 5.709930 40.985400 -0.000006 -0.000013 -11.192100 9.317340 -64.526900 11.754300 -0.000000 0.000003 0.001867 0.041934 -14.875700 -2.192510 6.469440 -0.000001 -177.966000 -13.121900 -167.858000 -39.081100 -0.002282 -0.040193 0.000484 0.010585 15.051200 -40.985400 0.000008 0.000006 8.081920 11.452200 -68.251800 -11.754300 -0.000006 -0.000006 -0.000329 -0.005359 -16.791500
0.000000 0.000000 0.000000 0.000000 0.000000 -0.000000 151.052000 91.006900 234.225000 97.649500 -63.377400 4.923100 15.735700 0.000005 -0.000001 132.976000 86.740000 -132.173000 8.984550 -0.406207 -0.000000 -3.029760 4.367250 1.721400 16.377300 -0.000001 -0.000001 -3.204760 -7.513630 -0.456029 6.456720 -0.000001 -0.000000 2.395670 -13.039000 2.087650 12.994200 -0.242716 4.980390 -92.899300 7.302220 -68.274900 5.348090 -0.000007 -0.000001 -58.155400 -18.993200 24.496200 24.328600 0.000019 0.000005 1.372660 26.050400 -3.123240 22.291600 -0.000001 0.000005 -1.311320 4.734090 12.532900 12.994500 -0.242716 -4.980390 89.316900 2.403060 -74.126500 -5.348130 -0.000001 -0.000004 -59.829200 8.788210 -20.788700 -24.328900 0.000322 -0.000009 -3.908250 -2.663860 -55.764100 -22.291500 -0.000108 -0.000004 5.910930 5.449280 -4.613170 -2.192480 -6.469440 -0.000000 -170.936000 -0.085252 -16.708600 39.081100 -0.000007 -0.000012 -0.005954 0.078365 4.344110 40.985400 -0.000006 -0.000013 -10.369400 14.204400 -66.725200 11.754300 -0.000000 0.000003 0.002103 0.050866 -14.513500 -2.192510 6.469440 -0.000001 -178.948000 -13.195500 -167.543000 -39.081100 -0.002282 -0.040193 -0.000304 0.011561 17.433000 -40.985400 0.000008 0.000006 8.420110 11.207100 -68.323100 -11.754300 -0.000006 -0.000006 -0.007939 -0.087531 -20.137300
0.000000 0.000000 0.000000 0.000000 0.000000 -0.000000 148.347000 90.168300 237.702000 98.523800 -63.629700 4.654720 15.735700 0.000005 -0.000001 135.398000 87.148200 -134.796000 8.984550 -0.406207 -0.000000 -3.786400 3.997910 1.337150 16.377300 -0.000001 -0.000001 -3.389310 -7.850390 -0.099281 6.456720 -0.000001 -0.000000 2.663280 -12.905400 2.631590 12.994200 -0.242716 4.980390 -92.886200 7.573510 -69.066800 5.348090 -0.000007 -0.000001 -57.303300 -17.921500 23.417500 24.328600 0.000019 0.000005 1.071690 27.898500 -2.289340 22.291600 -0.000001 0.000005 2.712070 4.456420 17.303800 12.994500 -0.242716 -4.980390 89.345000 2.299720 -74.097700 -5.348130 -0.000001 -0.000004 -60.846800 6.321120 -19.425400 -24.328900 0.000322 -0.000009 -5.713530 -3.984810 -55.212500 -22.291500 -0.000108 -0.000004 6.833540 5.462690 -5.098170 -2.192480 -6.469440 -0.000000 -171.934000 1.133520 -21.726600 39.081100 -0.000007 -0.000012 -0.031195 0.142304 12.364200 40.985400 -0.000006 -0.000013 -13.636900 15.962000 -66.809900 11.754300 -0.000000 0.000003 0.001791 0.039445 -14.976700 -2.192510 6.469440 -0.000001 179.934000 -13.280300 -168.455000 -39.081100 -0.002282 -0.040193 -0.003534 0.017300 21.609400 -40.985400 0.000008 0.000006 8.041380 10.380900 -67.524600 -11.754300 -0.000006 -0.000006 -0.025570 -0.196393 -24.609200
0.000000 0.000000 0.000000 0.000000 0.000000 -0.000000 145.363000 89.290400 241.303000 101.226000 -63.592500 5.958610 15.735700 0.000005 -0.000001 136.793000 87.663000 -136.735000 8.984550 -0.406207 -0.000000 -4.571980 3.397620 0.251998 16.377300 -0.000001 -0.000001 -3.313910 -8.076120 0.402839 6.456720 -0.000001 -0.000000 2.883080 -12.761000 3.719550 12.994200 -0.242716 4.980390 -92.766100 7.618350 -69.976100 5.348090 -0.000007 -0.000001 -57.633800 -16.709700 21.470500 24.328600 0.000019 0.000005 1.086240 26.802900 -2.407770 22.291600 -0.000001 0.000005 8.507370 4.196720 21.351300 12.994500 -0.242716 -4.980390 89.184300 2.808970 -73.799600 -5.348130 -0.000001 -0.000004 -62.757000 3.406260 -16.961500 -24.328900 0.000322 -0.000009 -7.601390 -5.651270 -53.573300 -22.291500 -0.000108 -0.000004 7.967150 5.480950 -5.784010 -2.192480 -6.469440 -0.000000 -175.484000 -0.360842 -28.617600 39.081100 -0.000007 -0.000012 -0.045031 0.094016 25.593500 40.985400 -0.000006 -0.000013 -8.784940 18.725100 -61.527600 11.754300 -0.000000 0.000003 0.001993 0.046452 -14.692500 -2.192510 6.469440 -0.000001 177.678000 -12.269600 -170.594000 -39.081100 -0.002282 -0.040193 -0.011512 0.028394 27.560700 -40.985400 0.000008 0.000006 7.820370 10.482900 -65.130300 -11.754300 -0.000006 -0.000006 -0.066053 -0.350960 -31.090100
0.000000 0.000000 0.000000 0.000000 0.000000 -0.000000 142.101000 88.653700 244.715000 104.636000 -63.477500 9.048320 15.735700 0.000005 -0.000001 125.654000 88.005700 -126.350000 8.984550 -0.406207 -0.000000 -4.512270 2.397430 -1.298680 16.377300 -0.000001 -0.000001 -3.348510 -8.088270 0.555527 6.456720 -0.000001 -0.000000 3.483950 -12.459100 5.859240 12.994200 -0.242716 4.980390 -92.886500 8.277870 -70.699300 5.348090 -0.000007 -0.000001 -57.928200 -15.248300 17.955500 24.328600 0.000019 0.000005 0.849047 22.207300 -2.245250 22.291600 -0.000001 0.000005 14.684600 4.148600 22.077300 12.994500 -0.242716 -4.980390 88.803400 4.146800 -73.888200 -5.348130 -0.000001 -0.000004 -65.747600 -0.651060 -13.444200 -24.328900 0.000322 -0.000009 -7.825510 -6.632710 -49.951600 -22.291500 -0.000108 -0.000004 9.113770 5.503240 -6.663410 -2.192480 -6.469440 -0.000000 -178.057000 0.702973 -29.650100 39.081100 -0.000007 -0.000012 0.164516 -0.258753 32.448300 40.985400 -0.000006 -0.000013 -5.644630 17.587300 -63.707500 11.754300 -0.000000 0.000003 0.002447 0.073163 -13.609500 -2.192510 6.469440 -0.000001 175.572000 -10.897700 -173.665000 -39.081100 -0.002282 -0.040193 -0.020593 0.032997 35.894800 -40.985400 0.000008 0.000006 7.010280 10.228200 -58.136000 -11.754300 -0.000006 -0.000006 -0.122100 -0.496377 -37.411400
